<svg width="253" height="223" viewBox="0 0 253 223" fill="none" xmlns="http://www.w3.org/2000/svg">
<path d="M9.46331 61.3492C10.1541 65.1035 11.6291 70.8154 11.9989 72.2238C11.9989 72.2238 15.4629 86.6264 20.5346 98.1527C26.3434 111.351 35.0173 123.139 44.1259 134.406C61.4491 155.834 80.5681 175.8 101.281 194.096C109.665 201.495 118.47 208.72 128.8 213.138C137.495 216.859 147.014 218.461 156.481 218.676C171.498 219.003 186.375 215.931 199.961 209.698C220.468 200.27 238.362 181.265 238.255 158.985C238.191 144.889 231.055 131.74 222.91 120.099C205.658 95.4491 183.25 74.7705 160.795 54.5638C146.293 41.5098 131.578 28.4703 114.69 18.5417C88.6639 3.2585 67.2623 2.90233 58.8436 2.72234C44.3015 2.36549 33.9501 2.11506 24.6971 9.02267C8.23707 21.3303 6.95806 47.5951 9.46331 61.3492Z" fill="#C2D8EE"/>
<path d="M196.16 130.368C197.04 138.668 197.91 146.866 198.795 155.2L200.898 155.073C207.739 154.668 214.581 154.097 221.432 153.916C225.085 153.903 228.734 154.184 232.341 154.756C236.532 155.332 240.052 157.485 243.184 160.165C246.003 162.577 248.693 165.141 251.348 167.733C251.846 168.221 252.343 169.325 252.119 169.867C251.909 170.23 251.623 170.544 251.28 170.791C250.938 171.038 250.546 171.21 250.13 171.297C248.266 171.634 246.384 171.861 244.492 171.976C243.552 172.059 243.11 172.342 243.234 173.368C243.701 177.195 244.079 181.033 244.582 184.851C244.636 185.281 245.203 185.735 245.646 186.008C247.913 187.4 249.091 189.45 248.967 192.004C248.842 194.557 247.152 196.164 244.741 196.994C241.111 198.244 237.661 195.138 238.431 191.169C238.67 189.939 239.6 188.85 240.161 187.673C240.443 187.206 240.602 186.678 240.624 186.135C240.316 182.717 239.928 179.349 239.57 175.955C239.46 174.906 239.381 173.851 239.286 172.752L200.774 175.032C201.41 181.933 202.045 188.783 202.678 195.583C204.557 195.583 206.263 195.519 207.963 195.583C208.417 195.583 208.866 195.683 209.275 195.876C209.685 196.068 210.046 196.347 210.332 196.694C210.618 197.041 210.821 197.446 210.928 197.879C211.034 198.313 211.04 198.764 210.946 199.201C210.837 199.811 210.181 200.665 209.668 200.763C209.057 200.861 208.177 200.372 207.68 199.87C207.277 199.45 207.113 199.03 206.372 199.088C202.728 199.362 199.078 199.538 195.434 199.826C194.832 199.87 194.275 200.314 193.674 200.534C193.072 200.753 192.232 201.198 191.759 200.988C191.45 200.802 191.184 200.555 190.978 200.262C190.772 199.97 190.63 199.638 190.561 199.289C190.333 197.975 191.093 196.96 192.47 196.642C193.705 196.401 194.954 196.238 196.209 196.154C197.099 196.061 197.994 196.047 199.033 195.993C198.934 194.987 198.854 194.118 198.77 193.254C198.233 187.698 197.671 182.141 197.194 176.585C197.099 175.506 196.736 175.282 195.702 175.369C191.163 175.75 186.614 176.043 182.069 176.375C181.761 176.375 181.453 176.463 181.045 176.527C181.045 177.015 181.01 177.503 181.045 177.962C181.333 181.38 181.696 184.753 181.905 188.161C181.914 188.834 182.075 189.497 182.375 190.102C182.674 190.707 183.107 191.24 183.64 191.662C184.359 192.277 184.906 193.063 185.229 193.944C185.551 194.826 185.638 195.773 185.481 196.697C185.325 197.621 184.93 198.49 184.334 199.221C183.739 199.953 182.962 200.522 182.079 200.875C179.419 201.959 176.864 201.056 175.541 198.566C174.218 196.076 174.895 192.79 177.167 191.491C177.525 191.327 177.817 191.049 177.993 190.701C178.169 190.353 178.219 189.957 178.136 189.577C177.818 185.735 177.51 181.887 177.251 178.045C177.192 177.069 176.754 176.99 175.939 177.103C174.424 177.325 172.899 177.47 171.369 177.537C167.889 177.649 167.457 176.707 166.741 173.172C166.452 171.708 166.696 170.17 166.641 168.666C166.348 160.961 166.025 153.262 165.736 145.562C165.709 144.809 165.759 144.055 165.885 143.311C165.957 142.644 166.239 142.015 166.693 141.513C167.147 141.011 167.75 140.662 168.416 140.513C169.545 140.209 170.69 139.966 171.847 139.786C173.98 139.513 174.9 140.274 175.039 142.364C175.382 147.491 175.665 152.617 175.983 157.753C176.169 160.683 176.363 163.601 176.565 166.508C176.617 166.751 176.688 166.989 176.779 167.221C177.346 166.449 177.773 165.873 178.211 165.268C181.666 160.175 186.937 157.91 192.63 156.352C195.185 155.654 195.195 155.698 194.802 153.115C194.763 152.856 194.698 152.627 194.613 152.178C193.261 152.314 191.924 152.407 190.601 152.598C187.036 153.086 184.858 151.855 184.371 148.428C183.981 145.273 183.815 142.095 183.874 138.917C183.852 138.126 184.106 137.352 184.594 136.723C185.081 136.094 185.772 135.646 186.554 135.455C188.572 134.879 190.621 134.415 192.769 133.873L192.172 130.861C191.178 130.915 190.293 130.993 189.403 131.007C188.364 131.007 187.648 130.519 187.543 129.474C187.505 129.253 187.513 129.026 187.569 128.808C187.624 128.59 187.725 128.386 187.866 128.209C188.006 128.032 188.183 127.885 188.384 127.778C188.585 127.672 188.807 127.607 189.035 127.59C192.103 127.175 195.18 126.828 198.263 126.525C198.49 126.484 198.724 126.488 198.95 126.539C199.175 126.589 199.388 126.685 199.574 126.82C199.761 126.954 199.917 127.125 200.033 127.321C200.15 127.517 200.224 127.735 200.252 127.961C200.304 128.18 200.309 128.407 200.268 128.628C200.226 128.849 200.139 129.059 200.011 129.246C199.883 129.432 199.718 129.591 199.525 129.712C199.332 129.832 199.115 129.913 198.889 129.948C197.988 130.135 197.076 130.275 196.16 130.368ZM245.327 167.924C243.796 166.342 242.498 164.823 241.007 163.529C237.755 160.659 234.046 158.759 229.571 158.32C224.551 157.785 219.491 157.708 214.456 158.09C209.828 158.481 205.189 158.706 200.535 158.984C199.466 159.047 198.949 159.321 199.128 160.59C199.541 163.568 199.819 166.571 200.038 169.569C200.122 170.721 200.485 171.034 201.679 170.965C214.814 170.096 227.955 169.286 241.096 168.436C242.473 168.329 243.836 168.104 245.327 167.924ZM178.554 172.669L196.557 171.41C196.145 167.435 195.762 163.681 195.374 159.931C188.806 160.024 179.29 167.24 178.554 172.669ZM193.331 137.936C191.497 137.697 189.633 138 187.976 138.805C187.802 138.935 187.661 139.102 187.565 139.295C187.468 139.487 187.418 139.699 187.419 139.913C187.543 142.593 187.697 145.284 187.961 147.954C188.001 148.36 188.667 149.033 189.03 149.029C190.795 148.989 192.555 148.76 194.405 148.589C194.032 144.883 193.689 141.461 193.331 137.936ZM172.946 173.578C172.384 163.539 171.827 153.686 171.27 143.795C169.724 144.083 169.649 144.112 169.644 145.259C169.644 147.212 169.644 149.165 169.709 151.118C170.002 158.237 170.33 165.355 170.649 172.474C170.649 172.86 170.718 173.241 170.758 173.724L172.946 173.578ZM243.249 193.723C243.885 192.98 244.711 192.424 244.86 191.731C245.009 191.037 244.398 190.329 244.079 189.509C242.115 191.15 241.966 191.799 243.234 193.723H243.249ZM178.982 196.423C179.131 196.554 179.533 197.233 180.006 197.282C180.208 197.32 180.417 197.309 180.613 197.248C180.81 197.187 180.988 197.079 181.131 196.933C181.274 196.788 181.378 196.609 181.433 196.415C181.489 196.22 181.494 196.014 181.448 195.817C181.363 195.329 180.816 194.538 180.399 194.489C179.538 194.396 178.827 194.875 178.967 196.423H178.982Z" fill="black"/>
<path d="M245.347 167.922C243.856 168.103 242.493 168.327 241.126 168.41C227.985 169.26 214.844 170.07 201.708 170.939C200.515 171.022 200.152 170.695 200.068 169.543C199.849 166.545 199.571 163.542 199.158 160.564C198.979 159.295 199.496 159.021 200.565 158.958C205.204 158.68 209.843 158.47 214.486 158.064C219.521 157.682 224.581 157.759 229.601 158.294C234.076 158.733 237.79 160.633 241.037 163.503C242.523 164.822 243.816 166.34 245.347 167.922Z" fill="white"/>
<path d="M178.563 172.668C179.299 167.238 188.826 160.022 195.384 159.939C195.771 163.689 196.154 167.443 196.567 171.418L178.563 172.668Z" fill="white"/>
<path d="M193.348 137.934C193.706 141.459 194.049 144.882 194.422 148.588C192.572 148.759 190.812 148.988 189.047 149.027C188.684 149.027 188.018 148.358 187.978 147.953C187.714 145.277 187.56 142.582 187.436 139.912C187.435 139.697 187.485 139.485 187.582 139.293C187.678 139.101 187.819 138.933 187.993 138.803C189.65 137.998 191.514 137.696 193.348 137.934Z" fill="#5788C2"/>
<path d="M172.939 173.576L170.751 173.684C170.712 173.195 170.662 172.819 170.642 172.434C170.324 165.315 169.996 158.197 169.702 151.078C169.623 149.125 169.628 147.172 169.638 145.219C169.638 144.091 169.717 144.062 171.264 143.754C171.82 153.685 172.377 163.538 172.939 173.576Z" fill="#5788C2"/>
<path d="M243.241 193.721C241.973 191.798 242.122 191.148 244.071 189.508C244.39 190.328 244.991 191.109 244.852 191.729C244.713 192.35 243.878 192.979 243.241 193.721Z" fill="white"/>
<path d="M178.97 196.422C178.831 194.874 179.542 194.395 180.387 194.498C180.805 194.547 181.352 195.318 181.436 195.826C181.482 196.023 181.477 196.229 181.422 196.424C181.367 196.618 181.263 196.797 181.119 196.942C180.976 197.088 180.798 197.196 180.602 197.257C180.405 197.317 180.197 197.329 179.994 197.291C179.522 197.232 179.119 196.554 178.97 196.422Z" fill="white"/>
<path d="M20.8422 112.442C19.3524 113.67 18.0565 114.837 16.6585 115.874C12.3217 119.096 7.4032 118.124 4.11743 115.198C2.02099 113.308 0.710186 110.723 0.437054 107.941C0.163923 105.159 0.947749 102.376 2.63781 100.127C5.66848 96.1838 9.17874 92.5814 12.6584 88.999C16.138 85.4167 19.98 81.9145 23.6535 78.3822C24.0106 78.0365 24.3474 77.6708 24.7709 77.2399C21.7453 74.3088 20.3167 70.8117 20.6381 66.7183C20.8917 63.5059 22.3605 60.5031 24.7555 58.301C26.9479 56.1984 29.8301 54.9296 32.8873 54.7213C35.9444 54.5129 38.9775 55.3786 41.4446 57.1636C46.9141 61.1719 47.8223 67.4898 44.1947 74.6496C45.2457 76.6537 46.3325 78.4073 47.0672 80.2711C47.5518 81.4149 47.7175 82.6649 47.5471 83.8924C47.3768 85.1199 46.8765 86.2807 46.0977 87.2554C44.5671 89.2846 42.8783 91.2336 41.2507 93.2077C40.9395 93.5834 40.5823 93.9292 40.1589 94.3751C40.5976 94.7008 40.9038 94.9563 41.2405 95.1767C43.8324 96.8652 45.0722 99.2752 45.2202 102.281C45.3324 104.596 45.46 106.906 45.5875 109.221C45.7049 111.34 45.1385 113.229 43.3273 114.506C37.0721 119.016 30.3628 119.712 23.2759 116.646C22.689 116.318 22.2202 115.819 21.9341 115.218C21.5113 114.316 21.1466 113.389 20.8422 112.442ZM19.1534 87.6563C19.3014 87.7765 19.3932 87.9018 19.5106 87.9369C22.4666 88.8243 25.0008 90.7227 26.6535 93.2879C26.8373 93.4457 27.0568 93.558 27.2938 93.6155C27.5308 93.673 27.7783 93.6741 28.0158 93.6185C30.4794 92.8171 33.0955 92.5722 35.669 92.9021C35.8646 92.9275 36.0634 92.9131 36.253 92.8596C36.4426 92.8062 36.619 92.7149 36.7711 92.5914C38.4293 90.948 40.1232 89.3147 41.6334 87.541C42.7456 86.2384 43.8936 84.8856 43.8936 82.9817C43.8936 79.8603 42.4089 77.7008 39.5568 76.4382C36.567 75.1155 33.4343 74.3088 30.6944 76.7088C26.8168 80.0857 23.1484 83.6881 19.3983 87.2054C19.2968 87.3444 19.2144 87.496 19.1534 87.6563ZM3.98477 106.59C4.08027 107.445 4.21991 108.295 4.40315 109.135C5.7399 114.051 11.5461 115.949 15.1176 112.788C16.3166 111.721 17.4748 110.613 18.6891 109.576C19.8065 108.619 19.9902 107.377 19.7657 106.069C19.0922 102.191 20.3473 98.9946 23.2504 96.4042C24.0055 95.7329 23.8576 95.297 23.3831 94.5905C21.9289 92.4611 19.6687 91.5593 17.337 90.7927C16.434 90.4871 15.8064 90.5622 15.1482 91.2937C12.2502 94.4703 9.28589 97.5917 6.38278 100.768C4.85437 102.336 3.99615 104.42 3.98477 106.59ZM26.3984 61.7581L42.7252 68.3967C43.8273 65.0047 41.5109 60.7109 37.7507 58.9172C33.9904 57.1235 28.8168 58.341 26.3984 61.7731V61.7581ZM23.5514 105.408C25.0821 109.075 30.0924 110.669 34.9496 109.301C38.8629 108.203 41.8681 105.067 41.3936 102.346L23.5514 105.408ZM27.1995 74.6546C28.8883 73.7878 30.3526 72.7807 31.9751 72.2647C34.5669 71.438 37.2149 71.8087 39.715 72.8108C40.9191 73.3118 41.4038 72.8859 41.6997 71.6584L24.7096 64.7442C24.018 66.4468 23.8862 68.3193 24.3327 70.0993C24.7792 71.8792 25.7816 73.4772 27.1995 74.6696V74.6546ZM23.6943 101.916L40.5313 99.0447C37.8782 96.274 34.8118 95.8681 31.5822 96.274C27.6331 96.78 24.2147 99.2802 23.6943 101.931V101.916ZM24.4137 111.535C24.4545 112.628 24.4137 113.539 25.5311 113.94C31.2148 115.944 36.5108 115.333 41.3732 111.706C42.2099 111.084 42.3273 110.383 41.8222 109.461C36.4649 113.565 30.7403 114.286 24.4137 111.55V111.535Z" fill="black"/>
<path d="M19.1406 87.6575C19.208 87.4962 19.2972 87.3445 19.4059 87.2066C23.156 83.6994 26.8244 80.087 30.702 76.71C33.4521 74.3101 36.5746 75.1168 39.5645 76.4395C42.4166 77.7021 43.8911 79.8615 43.9013 82.9829C43.9013 84.8868 42.7533 86.2396 41.641 87.5423C40.1104 89.3159 38.4369 90.9493 36.7787 92.5927C36.6266 92.7161 36.4503 92.8074 36.2607 92.8609C36.071 92.9143 35.8722 92.9288 35.6766 92.9033C33.1031 92.5734 30.487 92.8183 28.0234 93.6198C27.786 93.6753 27.5384 93.6743 27.3014 93.6168C27.0645 93.5592 26.8449 93.4469 26.6612 93.2891C25.0084 90.724 22.4742 88.8255 19.5182 87.9381C19.3651 87.903 19.2886 87.7778 19.1406 87.6575Z" fill="#FCE953"/>
<path d="M3.98291 106.591C3.98487 104.418 4.83591 102.329 6.3605 100.754C9.26362 97.5772 12.228 94.4558 15.126 91.2793C15.7893 90.5478 16.4117 90.4726 17.3148 90.7783C19.6669 91.5649 21.9067 92.4467 23.3659 94.6112C23.8404 95.3176 23.9884 95.7535 23.2333 96.4249C20.3301 99.0152 19.075 102.212 19.7485 106.09C19.973 107.377 19.7893 108.62 18.6719 109.597C17.4474 110.634 16.2893 111.741 15.1005 112.809C11.529 115.97 5.74825 114.071 4.38598 109.156C4.2072 108.308 4.07266 107.452 3.98291 106.591Z" fill="#1F3F8B"/>
<path d="M26.3906 61.7733C28.809 58.3412 33.9265 57.1237 37.7174 58.9324C41.5082 60.7411 43.794 65.0199 42.6919 68.4119L26.3906 61.7733Z" fill="white"/>
<path d="M23.5415 105.424L41.399 102.363C41.8735 105.083 38.8479 108.22 34.955 109.317C30.0824 110.685 25.0926 109.096 23.5415 105.424Z" fill="white"/>
<path d="M27.2117 74.6685C25.797 73.4772 24.7966 71.8817 24.3502 70.1049C23.9038 68.3282 24.0338 66.4588 24.7219 64.7581L41.712 71.6723C41.416 72.8998 40.9313 73.3057 39.7272 72.8247C37.2272 71.8226 34.5792 71.4519 31.9873 72.2786C30.3648 72.7946 28.9005 73.8017 27.2117 74.6685Z" fill="white"/>
<path d="M23.6851 101.93C24.1953 99.2799 27.6239 96.7798 31.5576 96.2888C34.7873 95.8829 37.8537 96.2887 40.5068 99.0594L23.6851 101.93Z" fill="white"/>
<path d="M24.4062 111.551C30.7329 114.287 36.4575 113.555 41.8147 109.477C42.3249 110.399 42.2025 111.1 41.3657 111.721C36.5034 115.349 31.2074 115.965 25.5236 113.956C24.3807 113.55 24.4726 112.643 24.4062 111.551Z" fill="white"/>
<path d="M99.782 95.7677C96.208 93.2488 92.34 91.3696 87.8567 91.1564C84.2376 90.9831 80.641 90.9831 77.0308 91.0275C73.4207 91.072 69.7925 91.2185 66.3316 89.9213C61.6448 88.171 58.7132 84.999 58.1884 79.9611C57.7089 75.2254 62.1469 70.2719 66.974 70.112C70.3082 70.0009 73.484 70.8095 76.6282 71.7379C79.9895 72.7331 83.2966 73.0707 86.5222 71.2937C88.3344 70.3509 89.8313 68.9148 90.8335 67.1577C89.7477 66.6646 88.7027 66.2248 87.6894 65.7316C83.939 63.9102 81.2336 61.1513 80.175 57.1131C79.4647 54.3942 79.9669 51.6398 80.6274 48.9832C81.8308 44.2252 83.1925 39.5072 84.4999 34.767C84.7222 33.7468 85.0356 32.7478 85.4364 31.7816C87.1012 28.3564 90.0011 27.0414 93.8782 27.8455C94.5206 27.9744 95.1539 28.1476 95.8913 28.3253C96.0994 27.8278 96.2713 27.348 96.493 26.8859C96.8911 26.0641 97.5607 25.602 98.479 25.8908C98.6926 25.9405 98.8929 26.0344 99.0665 26.1664C99.24 26.2983 99.3828 26.4652 99.4852 26.6558C99.5877 26.8465 99.6473 27.0564 99.6603 27.2716C99.6732 27.4867 99.6391 27.7021 99.5603 27.9033C98.9903 29.8313 98.3659 31.7505 97.7507 33.6786C97.4295 34.6337 96.7645 35.1757 95.6878 34.9314C94.783 34.7226 94.3622 33.803 94.6246 32.6746C94.706 32.3281 94.7965 31.986 94.9141 31.524C94.1043 31.3196 93.3715 31.0797 92.6205 30.9642C90.6209 30.6132 89.1687 31.3285 88.576 33.2343C87.0424 38.1967 85.5993 43.1812 84.1923 48.1791C83.7942 49.6052 83.6766 51.1067 83.378 52.5683C82.5275 56.7177 84.3145 59.7875 87.7074 61.9332C91.2226 64.1545 95.0815 65.5939 99.3793 65.6117C102.546 65.6117 104.654 63.9102 106.206 61.529C107.554 59.5091 108.674 57.3505 109.545 55.0917C111.332 50.2849 112.843 45.3981 114.449 40.5512C114.793 39.4984 114.508 38.6143 113.372 38.1878C111.979 37.6636 110.567 37.1749 109.201 36.6818C108.228 38.5299 107.559 38.9786 106.559 38.6143C105.559 38.25 105.337 37.317 105.907 35.5622C106.41 34.034 106.903 32.4969 107.427 30.9731C107.88 29.6936 108.708 29.165 109.689 29.4804C110.671 29.7958 110.956 30.6888 110.594 32.0082L110.142 33.4787C111.585 34.0073 112.997 34.4383 114.327 35.0291C117.575 36.4774 118.633 38.5521 117.566 41.8751C115.901 47.0462 114.227 52.2307 112.196 57.2685C111.053 60.0201 109.53 62.6046 107.672 64.9497C105.134 68.1928 101.519 69.4412 97.3707 68.6904C95.2761 68.3083 93.937 68.5971 92.435 70.494C88.6394 75.2876 83.4504 76.8069 77.3746 75.3009C74.5364 74.5274 71.6542 73.9192 68.7429 73.4794C65.2232 73.0352 63.5177 74.1414 62.07 77.1757C61.0069 79.3969 61.6493 82.409 63.6036 84.4259C65.9425 86.8515 68.9827 87.5757 72.1992 87.7311C74.2033 87.8289 76.221 87.7311 78.2297 87.6512C82.9211 87.4513 87.5898 87.5001 92.1952 88.5397C95.8687 89.366 98.9812 91.3518 102.08 93.2888C106.337 90.9742 109.319 92.458 111.169 94.6215C113.019 96.7851 112.92 100.224 110.965 102.547C109.992 103.736 108.633 104.562 107.114 104.885C105.596 105.208 104.011 105.01 102.623 104.324C99.5557 102.814 98.6464 100.073 99.782 95.7677ZM106.048 95.4567C105.138 95.4393 104.256 95.7696 103.59 96.378C102.923 96.9863 102.523 97.8251 102.474 98.7176C102.469 99.1213 102.546 99.5219 102.701 99.8959C102.856 100.27 103.085 100.61 103.375 100.896C103.666 101.182 104.011 101.408 104.392 101.561C104.772 101.714 105.18 101.791 105.591 101.787C106.501 101.792 107.378 101.448 108.035 100.83C108.693 100.212 109.08 99.3666 109.115 98.4732C109.142 96.6518 107.939 95.4701 106.057 95.4567H106.048Z" fill="black"/>
<path d="M182.001 66.4588C183.091 66.0478 183.948 65.718 184.814 65.3978C191.959 62.7596 198.106 64.5949 203.649 69.3694C209.927 74.7748 210.141 85.2892 204.535 92.1906C201.946 95.3831 198.641 97.6437 195.035 99.5268C187.291 103.57 178.779 105.477 170.432 107.785C167.356 108.641 164.105 108.932 160.922 109.358C158.791 109.64 157.267 108.646 156.197 106.753C152.576 100.363 150.916 93.3089 148.818 86.3885C147.018 80.4478 145.777 74.4832 145.986 68.251C146.273 59.8873 151.451 52.8521 158.922 50.3143C167.064 47.5519 179.782 53.0768 181.49 64.0787C181.607 64.8291 181.806 65.5698 182.001 66.4588ZM180.273 86.9668C180.542 86.8608 180.8 86.7329 181.047 86.5844C183.3 84.8925 185.461 85.0311 187.676 86.7326C190.518 88.9215 193.472 90.9766 196.3 93.1798C197.166 93.8537 197.843 93.9875 198.563 93.1798C200.086 91.5167 201.882 89.9921 202.997 88.0899C205.591 83.6834 206.043 78.8945 203.284 74.4689C200.456 69.9286 196.022 67.668 190.494 67.6871C187.466 67.6871 184.877 69.0587 182.22 70.158C180.152 71.0087 178.983 70.4208 178.638 68.2463C178.453 67.0897 178.229 65.9426 178.034 64.7908C176.852 57.9039 171.099 53.9275 165.001 53.1389C159.273 52.3981 153.048 56.5131 150.78 62.5254C148.935 67.4147 149.461 72.4186 150.235 77.4129C150.331 77.7355 150.539 78.0146 150.824 78.2015C153.257 80.0129 153.515 80.0129 155.939 78.2015C156.849 77.5181 157.72 76.7677 158.606 76.0652C160.475 74.5454 162.319 72.9921 164.222 71.5153C165.103 70.8366 166.13 70.2918 167.279 70.9179C168.427 71.544 168.524 72.7197 168.49 73.881C168.487 74.1404 168.464 74.3992 168.422 74.6553C167.882 77.3699 167.347 80.0894 166.782 82.7801C166.519 84.0466 166.188 85.294 165.892 86.5557C167.838 85.1506 169.493 83.6069 171.211 82.1253C173.304 80.3283 175.363 78.4739 177.592 76.8681C179.402 75.5442 181.242 76.5718 181.354 78.7798C181.368 79.0832 181.354 79.3872 181.31 79.6879C180.959 82.1062 180.624 84.4959 180.273 86.9668ZM194.154 96.2577C194.188 96.0618 194.217 95.8706 194.246 95.6747C191.131 93.5049 188.021 91.3207 184.872 89.2035C184.665 89.1191 184.441 89.0813 184.217 89.0929C183.993 89.1045 183.775 89.1651 183.578 89.2704C182.308 89.9634 181.144 90.8954 179.835 91.4641C178.975 91.8143 178.02 91.8682 177.124 91.617C176.127 91.2968 176.122 90.1833 176.219 89.2608C176.248 88.9598 176.316 88.6634 176.365 88.3623L177.46 81.7095C174.959 83.583 172.725 85.6094 170.442 87.5737C168.851 88.9406 167.215 90.2693 165.536 91.531C164.646 92.2001 163.589 92.396 162.577 91.6887C161.565 90.9814 161.521 90.0351 161.745 88.9932C162.183 86.9636 162.631 84.9356 163.088 82.9091C163.609 80.6055 164.144 78.3019 164.675 76.003C164.127 76.1462 163.625 76.4223 163.215 76.806C161.667 78.0964 160.178 79.468 158.562 80.6629C156.537 82.1588 154.668 84.276 151.534 82.7323C152.128 84.8495 152.629 86.68 153.15 88.5057C154.756 94.1357 156.348 99.7657 159.287 104.913C159.618 105.496 159.852 106.06 160.747 105.917C163.273 105.515 165.872 105.405 168.32 104.751C174.569 103.075 180.779 101.26 186.951 99.3069C189.404 98.5088 191.745 97.29 194.154 96.2577Z" fill="black"/>
<path d="M199.926 109.672C198.821 109.672 198.111 109.266 197.887 108.282C197.663 107.297 198.062 106.504 198.977 106.332C202.934 105.591 205.114 102.671 207.44 99.9132C207.767 99.4523 208.118 99.0088 208.492 98.5845C209.158 97.9441 210.073 97.6717 210.716 98.3886C211.149 98.8665 211.533 99.9849 211.266 100.401C208.657 104.487 205.557 108.095 200.612 109.586C200.387 109.638 200.157 109.667 199.926 109.672Z" fill="black"/>
<path d="M205.178 115.126C203.888 115.174 203.183 114.825 202.934 113.883C202.867 113.684 202.841 113.474 202.858 113.265C202.875 113.056 202.935 112.853 203.034 112.668C203.133 112.482 203.27 112.318 203.435 112.185C203.6 112.052 203.79 111.954 203.995 111.895C207.196 110.829 209.919 108.703 211.7 105.883C211.812 105.705 211.959 105.551 212.132 105.43C212.306 105.309 212.503 105.224 212.711 105.179C212.919 105.135 213.134 105.132 213.343 105.17C213.552 105.209 213.752 105.289 213.929 105.405C214.122 105.493 214.295 105.618 214.437 105.774C214.579 105.93 214.687 106.112 214.755 106.31C214.823 106.508 214.849 106.718 214.831 106.926C214.814 107.135 214.754 107.337 214.654 107.522C214.266 108.293 213.796 109.022 213.252 109.696C211.483 111.929 209.142 113.661 206.468 114.715C206.046 114.875 205.615 115.012 205.178 115.126Z" fill="black"/>
<path d="M135.454 72.2507C135.337 71.0033 135.059 69.7416 135.142 68.5085C135.257 66.7542 135.534 65.0137 135.969 63.3087C136.26 62.6048 136.809 62.0335 137.507 61.7076C137.788 61.6361 138.083 61.634 138.365 61.7015C138.647 61.7691 138.907 61.9042 139.123 62.0947C139.317 62.3392 139.452 62.6236 139.518 62.9266C139.583 63.2295 139.578 63.5431 139.503 63.8439C138.486 66.0998 138.632 68.3843 138.948 70.7261C139.049 71.6697 139.027 72.6219 138.885 73.5603C138.744 74.6404 138.057 75.3095 136.889 75.1613C135.721 75.0132 135.429 74.1816 135.4 73.1779C135.4 72.8768 135.4 72.5757 135.4 72.2698L135.454 72.2507Z" fill="black"/>
<path d="M126.109 66.8257C126.313 65.5045 126.588 64.1947 126.932 62.9019C127.346 61.6115 128.363 61.0714 129.326 61.4681C130.553 61.946 130.572 62.9019 130.3 63.9533C129.677 66.2761 129.633 68.5271 130.786 70.7399C130.907 70.9737 130.975 71.2299 130.987 71.4916C130.999 71.7533 130.954 72.0145 130.855 72.2577C130.756 72.501 130.605 72.7207 130.413 72.9024C130.221 73.084 129.991 73.2234 129.74 73.3112C129.495 73.4162 129.229 73.4667 128.962 73.4591C128.695 73.4515 128.432 73.386 128.194 73.2672C127.955 73.1485 127.746 72.9795 127.582 72.7723C127.418 72.5651 127.302 72.3248 127.243 72.0686C126.771 70.3098 126.474 68.5223 126.109 66.8257Z" fill="black"/>
<path d="M180.273 86.966C180.623 84.4951 180.959 82.1054 181.29 79.7206C181.334 79.4199 181.348 79.1159 181.334 78.8125C181.222 76.6045 179.387 75.5769 177.572 76.9008C175.343 78.521 173.284 80.3753 171.191 82.158C169.473 83.6396 167.809 85.1833 165.872 86.5884C166.168 85.3267 166.499 84.0793 166.762 82.8128C167.327 80.1029 167.862 77.3835 168.402 74.688C168.444 74.4319 168.467 74.1731 168.47 73.9137C168.505 72.7523 168.441 71.5958 167.259 70.9506C166.076 70.3054 165.083 70.8693 164.202 71.548C162.299 73.0248 160.455 74.578 158.586 76.0979C157.7 76.8148 156.829 77.5317 155.919 78.2342C153.485 80.0599 153.261 80.0599 150.804 78.2342C150.519 78.0473 150.311 77.7681 150.215 77.4456C149.441 72.4513 148.915 67.4473 150.76 62.5581C153.028 56.5458 159.253 52.4308 164.981 53.1716C171.079 53.9602 176.832 57.9509 178.014 64.8235C178.209 65.9753 178.433 67.1223 178.618 68.2789C178.964 70.4296 180.132 71.0175 182.2 70.1907C184.877 69.0914 187.466 67.7245 190.474 67.7198C196.003 67.7198 200.436 69.9613 203.264 74.5016C206.023 78.9272 205.571 83.7161 202.977 88.1226C201.862 90.0343 200.057 91.5493 198.543 93.2125C197.823 94.0011 197.146 93.8673 196.28 93.2125C193.452 91.0093 190.498 88.9542 187.656 86.7653C185.441 85.0638 183.276 84.9252 181.027 86.6171C180.786 86.7531 180.533 86.8698 180.273 86.966Z" fill="#5788C2"/>
<path d="M194.149 96.2567C191.716 97.289 189.399 98.5269 186.912 99.3059C180.747 101.246 174.537 103.061 168.282 104.75C165.848 105.404 163.235 105.514 160.709 105.916C159.823 106.059 159.589 105.495 159.249 104.912C156.328 99.7647 154.717 94.1347 153.111 88.5047C152.591 86.679 152.089 84.8485 151.496 82.7313C154.63 84.275 156.499 82.1578 158.523 80.6618C160.139 79.467 161.628 78.0954 163.176 76.805C163.587 76.4213 164.089 76.1452 164.636 76.002C164.106 78.3009 163.57 80.6045 163.05 82.9081C162.592 84.9345 162.144 86.9626 161.706 88.9922C161.482 90.0341 161.599 91.0186 162.539 91.6877C163.478 92.3568 164.607 92.1991 165.498 91.53C167.177 90.2682 168.812 88.9396 170.404 87.5727C172.686 85.6084 174.92 83.582 177.422 81.7085L176.327 88.3613C176.278 88.6624 176.21 88.9587 176.181 89.2598C176.083 90.2157 176.088 91.2958 177.086 91.616C177.981 91.8671 178.937 91.8132 179.797 91.4631C181.116 90.8943 182.269 89.9624 183.539 89.2694C183.736 89.1641 183.955 89.1035 184.179 89.0919C184.403 89.0803 184.627 89.1181 184.834 89.2025C187.983 91.3197 191.093 93.5038 194.208 95.6736C194.212 95.8696 194.183 96.0607 194.149 96.2567Z" fill="#5788C2"/>
<path d="M147.05 25.9972C147.753 27.7522 148.969 29.2637 150.544 30.3416C151.022 30.6564 151.476 31.0046 151.902 31.3835C153.231 32.5879 152.842 34.2893 151.114 34.8198C150.486 35.0157 149.819 35.0922 149.167 35.2691C144.261 36.6168 141.103 39.8524 139.083 44.3067C138.879 44.8306 138.642 45.3414 138.372 45.8361C137.886 46.639 136.985 47.0118 136.221 46.5434C135.636 46.0863 135.257 45.4223 135.165 44.6938C135.087 44.0725 135.55 43.3939 135.734 42.7343C136.572 39.7425 137.521 36.7793 138.168 33.754C138.418 32.8435 138.379 31.8797 138.057 30.9915C137.734 30.1033 137.143 29.333 136.362 28.7835C136.082 28.5178 135.87 28.1899 135.746 27.8273C135.621 27.4647 135.587 27.078 135.647 26.6998C135.851 26.1119 136.786 25.6149 137.501 25.3902C138.217 25.1656 139.166 25.3138 139.998 25.2373C143.994 24.8693 146.081 22.2837 147.522 18.9573C147.699 18.4246 147.915 17.9054 148.169 17.404C148.69 16.5676 149.503 16.2092 150.437 16.625C151.372 17.0408 151.61 17.8198 151.333 18.7996C150.578 21.562 149.002 23.8943 147.05 25.9972ZM141.935 34.7147L146.855 32.1577L143.823 27.9758L141.39 28.6497C141.57 30.767 141.745 32.7552 141.935 34.7147Z" fill="black"/>
<path d="M141.923 34.7147C141.742 32.7552 141.557 30.767 141.368 28.6498L143.801 27.9759L146.833 32.1578L141.923 34.7147Z" fill="white"/>
<path d="M92.0804 125.071C92.3485 124.049 92.5803 123.156 92.8212 122.264C92.953 121.755 93.0803 121.237 93.2757 120.742C93.7802 119.296 94.7164 118.733 96.2344 119.068C98.6068 119.59 100.97 120.175 103.338 120.728C103.684 120.809 104.043 120.853 104.502 120.934C105.002 118.974 105.479 117.1 105.956 115.221C106.165 114.4 106.36 113.57 106.592 112.748C106.969 111.41 107.674 110.941 109.056 111.128C110.365 111.307 111.66 111.575 112.96 111.78C114.95 112.124 116.946 112.454 118.932 112.815C120.622 113.123 121.181 113.913 120.868 115.569C120.413 118.037 119.904 120.501 119.422 122.964C119.368 123.241 119.345 123.522 119.282 123.96C120.586 124.326 121.877 124.701 123.177 125.044C124.567 125.419 125.972 125.754 127.367 126.129C129.639 126.74 130.357 127.86 129.894 130.195C129.626 131.534 129.267 132.873 128.953 134.211C128.88 134.519 128.835 134.836 128.749 135.278C130.017 135.622 131.235 135.965 132.457 136.282C138.602 137.876 144.728 139.442 150.887 141.071C151.662 141.328 152.386 141.718 153.023 142.223C153.755 142.745 153.714 143.562 153.514 144.329C153.027 146.257 152.555 148.185 152.068 150.131C149.948 158.534 147.836 166.941 145.733 175.352C145.215 177.432 144.824 179.539 144.315 181.627C144.171 182.217 143.959 182.789 143.683 183.332C143.48 183.711 143.148 184.007 142.745 184.17C142.343 184.333 141.895 184.353 141.479 184.225C135.604 182.934 129.727 181.647 123.849 180.364C120.79 179.695 117.727 179.025 114.659 178.396C114.346 178.329 114.028 178.302 113.555 178.235C113.555 178.874 113.555 179.423 113.555 179.972C113.761 183.655 113.97 187.337 114.182 191.018C114.182 191.299 114.182 191.589 114.228 191.866C114.573 194.195 113.141 195.115 110.719 194.57C107.301 193.807 103.938 192.816 100.552 191.892C94.4619 190.268 88.3717 188.643 82.2816 187.019C79.7319 186.345 79.3047 185.198 80.809 183.091C83.0815 179.909 85.3267 176.709 87.5764 173.509C87.7464 173.235 87.8982 172.95 88.0309 172.657C86.1402 172.21 84.3495 171.764 82.577 171.318C74.6356 169.434 66.6971 167.555 58.7617 165.681C57.7619 165.44 56.762 165.234 56.1802 164.212C55.9534 163.876 55.7999 163.496 55.7296 163.098C55.6592 162.701 55.6733 162.293 55.7712 161.9C56.312 159.905 56.8165 157.884 57.3483 155.902C59.8752 146.381 62.4068 136.86 64.9428 127.338C65.5064 125.223 66.0518 123.107 66.6381 120.996C66.7738 120.492 66.9868 120.01 67.2698 119.568C67.4503 119.291 67.722 119.083 68.0396 118.979C68.3572 118.876 68.7015 118.882 69.015 118.997C73.669 120.238 78.3139 121.492 82.9724 122.723C85.7584 123.455 88.5535 124.156 91.3487 124.866C91.4941 124.946 91.6941 124.977 92.0804 125.071ZM91.2214 128.329L69.6377 122.822C66.1154 136.064 62.6431 149.154 59.139 162.307C59.6525 162.454 60.048 162.579 60.4252 162.668C63.8672 163.489 67.3137 164.308 70.7648 165.123C76.7368 166.542 82.7103 167.958 88.6853 169.372C89.2102 169.465 89.7396 169.532 90.2715 169.573C91.0169 166.725 91.7486 164.034 92.4303 161.329C93.1121 158.625 93.9483 155.973 94.4528 153.242C93.9393 153.081 93.5847 152.988 93.2439 152.854C92.8455 152.73 92.5084 152.464 92.2984 152.11C92.0883 151.755 92.0203 151.336 92.1076 150.935C92.2014 150.533 92.4497 150.183 92.8004 149.958C93.1512 149.732 93.5772 149.649 93.9892 149.725C94.6026 149.813 95.2098 149.938 95.8072 150.1C100.937 151.323 106.07 152.547 111.205 153.773C113.691 154.371 116.177 154.965 118.645 155.616C119.804 155.92 120.313 156.75 120.068 157.674C119.841 158.526 119.009 158.941 117.886 158.772C117.432 158.705 116.941 158.647 116.396 158.575C115.223 163.931 114.078 169.198 112.901 174.585C122.295 176.642 131.535 178.655 140.734 180.601C141.265 179.36 150.005 145.119 149.741 144.204C142.515 142.339 135.252 140.411 127.926 138.59C127.749 139.125 127.649 139.482 127.517 139.808C126.899 141.442 126.117 141.884 124.386 141.509C122.736 141.156 121.095 140.741 119.45 140.362C118.454 140.13 117.459 139.915 116.364 139.67C116.205 140.179 116.064 140.594 115.955 141.009C115.5 142.856 115.046 144.709 114.55 146.547C114.15 148.043 113.414 148.516 111.919 148.168C108.392 147.349 104.87 146.494 101.352 145.601C99.9249 145.249 99.4204 144.41 99.6795 142.964C99.8431 142.071 100.057 141.138 100.252 140.228C100.57 138.728 100.893 137.233 101.234 135.626C99.9567 135.242 98.7841 134.89 97.5979 134.546C95.939 134.06 94.2574 133.654 92.5985 133.087C90.7533 132.453 90.3579 131.632 90.8169 129.82C90.9669 129.378 91.076 128.914 91.2214 128.311V128.329ZM124.481 138.121C125.195 135.149 125.844 132.368 126.562 129.476C125.913 129.28 125.376 129.097 124.831 128.949C122.286 128.262 119.732 127.611 117.195 126.888C115.8 126.49 115.418 125.816 115.682 124.419C116.009 122.665 116.373 120.92 116.714 119.175C116.914 118.149 117.1 117.122 117.318 115.949C114.691 115.422 112.178 114.962 109.592 114.61C109.406 115.27 109.251 115.77 109.137 116.279C108.606 118.403 108.101 120.532 107.556 122.648C107.179 124.116 106.483 124.625 104.965 124.455C103.988 124.312 103.02 124.114 102.066 123.862C100.188 123.415 98.316 122.969 96.2708 122.523C95.5981 125.116 94.9528 127.597 94.3028 130.11C94.6755 130.248 94.8937 130.342 95.1255 130.409C97.5388 131.101 99.9476 131.806 102.365 132.48C104.183 132.989 104.929 133.881 104.602 136.157C104.579 136.318 104.542 136.474 104.506 136.635C104.133 138.335 103.752 140.031 103.388 141.736C103.346 142.063 103.331 142.393 103.343 142.723C106.142 143.325 108.797 144.178 111.573 144.597C111.687 144.231 111.773 144.008 111.833 143.776C112.342 141.776 112.81 139.759 113.369 137.773C113.787 136.273 114.609 135.849 116.168 136.193C117.214 136.425 118.254 136.688 119.3 136.929L124.481 138.121ZM110.019 177.597L91.994 173.134C89.4352 176.78 86.8356 180.338 84.2677 184.162L110.755 191.214C110.519 186.51 110.269 182.092 110.019 177.579V177.597ZM113.141 157.652L106.71 156.125C105.347 161.566 104.02 166.868 102.765 172.299L109.583 173.969C110.769 168.484 111.946 163.168 113.141 157.652ZM99.4704 171.487C100.784 165.993 102.166 160.74 103.397 155.34L97.8206 154.032C96.4026 159.468 94.9755 164.703 93.6575 170.072L99.4704 171.487Z" fill="black"/>
<path d="M91.2314 128.31C91.0859 128.913 90.9768 129.377 90.8587 129.837C90.4042 131.649 90.795 132.47 92.6403 133.104C94.2764 133.661 95.958 134.077 97.6397 134.563C98.8168 134.907 99.9894 135.259 101.276 135.643C100.935 137.25 100.612 138.745 100.294 140.244C100.098 141.137 99.8848 142.065 99.7212 142.98C99.4622 144.426 99.9666 145.265 101.394 145.618C104.918 146.511 108.444 147.362 111.974 148.171C113.47 148.519 114.206 148.046 114.606 146.551C115.101 144.712 115.542 142.86 116.01 141.012C116.119 140.593 116.26 140.178 116.419 139.673C117.514 139.919 118.51 140.12 119.505 140.365C121.15 140.744 122.791 141.159 124.441 141.512C126.173 141.887 126.954 141.445 127.572 139.812C127.704 139.477 127.804 139.129 127.981 138.593C135.29 140.414 142.552 142.342 149.797 144.208C150.061 145.1 141.321 179.363 140.789 180.604C131.581 178.658 122.35 176.645 112.956 174.588C114.133 169.201 115.278 163.957 116.451 158.579C116.996 158.65 117.469 158.708 117.942 158.775C119.064 158.945 119.896 158.53 120.123 157.677C120.369 156.753 119.86 155.923 118.701 155.62C116.233 154.968 113.747 154.375 111.261 153.777C106.131 152.545 100.998 151.32 95.8626 150.103C95.2652 149.941 94.658 149.816 94.0447 149.729C93.6327 149.652 93.2066 149.736 92.8559 149.961C92.5051 150.187 92.2568 150.537 92.1631 150.938C92.0757 151.339 92.1437 151.758 92.3538 152.113C92.5639 152.468 92.9009 152.733 93.2993 152.857C93.6402 152.991 93.9946 153.085 94.5082 153.245C94.0037 155.999 93.1447 158.646 92.4857 161.333C91.8267 164.019 91.0723 166.728 90.3269 169.576C89.795 169.536 89.2656 169.469 88.7407 169.375C82.7627 167.971 76.7892 166.554 70.8202 165.126C67.3388 164.308 63.8771 163.482 60.4351 162.649C60.0443 162.56 59.6625 162.435 59.1489 162.288C62.653 149.113 66.1253 136.045 69.6476 122.803L91.2314 128.31ZM125.427 154.339C125.532 154.388 125.64 154.431 125.75 154.468C130.104 155.74 134.444 157.035 138.807 158.266C140.075 158.624 140.862 158.11 141.184 156.825C141.693 154.781 142.175 152.728 142.611 150.67C142.97 148.97 142.448 148.207 140.698 147.738C137.471 146.884 134.241 146.041 131.008 145.207C129.931 144.931 128.854 144.623 127.759 144.453C126.441 144.252 125.563 144.824 125.218 146.042C124.732 147.756 124.309 149.483 123.855 151.215C123.482 152.714 124.227 153.634 125.427 154.339ZM72.211 142.257C72.3501 142.316 72.4928 142.367 72.6382 142.409C76.8649 143.471 81.0871 144.547 85.3275 145.564C86.7228 145.899 87.7818 145.257 88.1363 143.882C88.5908 142.097 89.0134 140.262 89.3407 138.432C89.677 136.531 89.0271 135.692 87.0682 135.183C85.1094 134.675 83.1778 134.139 81.228 133.621C79.0874 133.05 76.9467 132.461 74.7925 131.916C73.2881 131.537 72.4882 131.97 72.0655 133.398C71.5338 135.268 71.052 137.147 70.5612 139.026C70.2157 140.486 70.8702 141.458 72.211 142.257ZM84.9367 157.624C84.9821 157.476 85.073 157.249 85.1275 157.012C85.582 155.004 86.0729 152.996 86.5228 150.978C86.7501 149.947 86.2729 149.193 85.1594 148.867C84.1731 148.582 83.1596 148.376 82.1597 148.135C78.7965 147.336 75.4333 146.524 72.0655 145.734C70.2748 145.319 69.1977 145.966 68.7296 147.693C68.5251 148.439 68.3205 149.18 68.1478 149.925C67.8413 151.058 67.597 152.207 67.4161 153.366C67.2525 154.754 67.766 155.379 69.1431 155.727C71.1793 156.236 73.2336 156.722 75.2651 157.213C77.5376 157.762 79.81 158.316 82.1098 158.847C83.505 159.177 84.3504 158.811 84.9185 157.624H84.9367ZM122.073 168.362C122.4 168.456 122.827 168.603 123.264 168.706C125.991 169.348 128.718 169.984 131.445 170.611C132.849 170.937 134.249 171.281 135.658 171.571C136.948 171.839 137.839 171.366 138.071 170.303C138.498 168.371 138.916 166.434 139.285 164.501C139.598 162.85 138.994 161.989 137.335 161.569C133.944 160.712 130.558 159.846 127.168 159.003C126.175 158.741 125.167 158.533 124.15 158.383C123.091 158.244 122.332 158.606 122.064 159.507C121.435 161.563 120.912 163.648 120.496 165.756C120.282 166.845 120.941 167.746 122.073 168.362Z" fill="white"/>
<path d="M124.498 138.102L119.307 136.919C118.262 136.678 117.221 136.415 116.176 136.183C114.617 135.839 113.795 136.263 113.376 137.763C112.817 139.749 112.349 141.78 111.84 143.766C111.781 143.998 111.695 144.212 111.581 144.587C108.795 144.167 106.15 143.315 103.35 142.712C103.339 142.383 103.354 142.053 103.396 141.726C103.759 140.021 104.141 138.325 104.514 136.625C104.55 136.464 104.587 136.308 104.609 136.147C104.937 133.871 104.2 132.978 102.373 132.47C99.9553 131.796 97.5465 131.091 95.1332 130.399C94.9014 130.332 94.6787 130.238 94.3105 130.1C94.9605 127.574 95.6059 125.092 96.2785 122.513C98.3237 122.99 100.196 123.436 102.073 123.851C103.027 124.104 103.996 124.302 104.973 124.445C106.491 124.615 107.186 124.106 107.563 122.637C108.109 120.522 108.613 118.393 109.145 116.269C109.268 115.76 109.422 115.26 109.6 114.599C112.186 114.943 114.699 115.403 117.326 115.938C117.108 117.112 116.921 118.139 116.721 119.165C116.381 120.91 116.017 122.655 115.69 124.409C115.426 125.806 115.808 126.48 117.203 126.877C119.739 127.6 122.293 128.252 124.839 128.939C125.384 129.087 125.92 129.27 126.57 129.466C125.884 132.349 125.211 135.13 124.498 138.102Z" fill="#5788C2"/>
<path d="M110.026 177.578C110.276 182.09 110.526 186.504 110.785 191.19L84.2974 184.139C86.8425 180.314 89.4422 176.757 92.0237 173.11L110.026 177.578ZM106.499 179.966C106.596 179.776 106.652 179.568 106.664 179.356C106.677 179.144 106.645 178.931 106.572 178.732C106.498 178.532 106.384 178.349 106.237 178.193C106.089 178.038 105.911 177.914 105.713 177.828C105.506 177.734 105.283 177.683 105.055 177.676C104.828 177.669 104.602 177.707 104.39 177.788C104.178 177.868 103.984 177.99 103.821 178.146C103.658 178.302 103.529 178.488 103.44 178.694C103.273 179.066 103.256 179.486 103.393 179.87C103.53 180.253 103.81 180.572 104.177 180.76C104.594 180.944 105.067 180.964 105.499 180.816C105.931 180.669 106.289 180.364 106.499 179.966ZM92.2327 179.644C92.0445 179.534 91.8351 179.462 91.6175 179.433C91.3999 179.405 91.1786 179.42 90.9674 179.479C90.7561 179.537 90.5593 179.638 90.3891 179.774C90.2189 179.91 90.0788 180.079 89.9775 180.27C89.8762 180.462 89.8159 180.671 89.8002 180.886C89.7845 181.101 89.8138 181.317 89.8863 181.521C89.9587 181.724 90.0729 181.911 90.2216 182.07C90.3703 182.228 90.5505 182.355 90.7511 182.443C91.1348 182.643 91.5832 182.688 92.0002 182.568C92.4173 182.448 92.7699 182.172 92.9827 181.8C93.082 181.611 93.1417 181.404 93.1584 181.191C93.1751 180.979 93.1483 180.765 93.0797 180.563C93.0111 180.361 92.902 180.175 92.7589 180.015C92.6158 179.854 92.4416 179.724 92.2464 179.631L92.2327 179.644ZM99.5728 180.412C99.1914 180.231 98.7531 180.204 98.3515 180.336C97.9498 180.468 97.6167 180.749 97.4232 181.119C97.2298 181.489 97.1914 181.919 97.3161 182.316C97.4409 182.714 97.7191 183.047 98.0911 183.246C98.4725 183.427 98.9108 183.455 99.3124 183.322C99.7141 183.19 100.047 182.909 100.241 182.539C100.434 182.169 100.473 181.74 100.348 181.342C100.223 180.945 99.9448 180.611 99.5728 180.412ZM94.028 178.381C94.2114 178.47 94.4111 178.523 94.6153 178.535C94.8195 178.547 95.0241 178.519 95.2172 178.452C95.4102 178.386 95.5878 178.282 95.7395 178.147C95.8911 178.013 96.0139 177.849 96.1004 177.667C96.191 177.487 96.2428 177.29 96.2524 177.089C96.262 176.888 96.2294 176.687 96.1565 176.499C96.0835 176.311 95.9719 176.14 95.8285 175.996C95.6852 175.852 95.5132 175.739 95.3233 175.663C94.9562 175.495 94.536 175.476 94.155 175.612C93.774 175.747 93.4635 176.026 93.2917 176.386C93.1199 176.747 93.101 177.159 93.2391 177.534C93.3772 177.908 93.6609 178.213 94.028 178.381ZM106.408 183.603C106.058 183.427 105.652 183.39 105.275 183.499C104.897 183.609 104.577 183.857 104.381 184.192C104.191 184.53 104.144 184.928 104.25 185.3C104.357 185.672 104.608 185.987 104.949 186.178C105.124 186.287 105.32 186.358 105.524 186.386C105.729 186.414 105.937 186.398 106.135 186.34C106.332 186.282 106.515 186.183 106.671 186.05C106.826 185.916 106.95 185.752 107.035 185.567C107.13 185.398 107.189 185.212 107.209 185.02C107.229 184.828 107.208 184.634 107.15 184.449C107.091 184.265 106.995 184.094 106.868 183.947C106.741 183.801 106.584 183.68 106.408 183.594V183.603Z" fill="#5788C2"/>
<path d="M113.152 157.65C111.948 163.149 110.78 168.464 109.576 173.967L102.758 172.298C104.013 166.867 105.363 161.564 106.703 156.124L113.152 157.65Z" fill="#EAECF1"/>
<path d="M99.4809 171.487L93.668 170.072C94.986 164.716 96.3949 159.468 97.8311 154.032L103.408 155.339C102.176 160.731 100.794 165.984 99.4809 171.487Z" fill="#EAECF1"/>
<path d="M125.418 154.338C124.222 153.629 123.472 152.714 123.85 151.214C124.281 149.482 124.722 147.755 125.213 146.041C125.558 144.823 126.436 144.256 127.754 144.453C128.849 144.622 129.926 144.93 131.003 145.207C134.236 146.04 137.466 146.883 140.693 147.737C142.443 148.206 142.965 148.969 142.606 150.67C142.152 152.727 141.697 154.78 141.179 156.824C140.857 158.11 140.07 158.61 138.802 158.266C134.439 157.034 130.099 155.74 125.745 154.468C125.633 154.431 125.524 154.387 125.418 154.338ZM134.203 153.446L138.252 154.637C138.557 153.272 138.821 152.08 139.116 150.763L135.153 149.773C134.816 151.098 134.526 152.209 134.217 153.459L134.203 153.446ZM130.908 152.495C131.249 151.241 131.549 150.139 131.89 148.893L128.208 147.974L127.322 151.451L130.908 152.495Z" fill="black"/>
<path d="M72.2173 142.259C70.8766 141.46 70.2221 140.473 70.6039 139.027C71.0947 137.148 71.5765 135.269 72.1082 133.399C72.5173 131.971 73.3172 131.538 74.8352 131.918C76.9895 132.462 79.1301 133.051 81.2707 133.623C83.2205 134.14 85.1612 134.676 87.1109 135.185C89.0607 135.693 89.697 136.524 89.3834 138.434C89.0562 140.264 88.638 142.08 88.179 143.883C87.8245 145.258 86.7655 145.9 85.3702 145.566C81.1299 144.548 76.9077 143.473 72.6809 142.41C72.5232 142.37 72.3683 142.319 72.2173 142.259ZM85.1021 142.085C85.3884 140.746 85.6429 139.563 85.9111 138.3L82.0161 137.287C81.6571 138.626 81.3389 139.804 80.9935 141.098L85.1021 142.085ZM77.6576 140.246C78.0956 138.983 78.4344 137.69 78.6711 136.376L75.0352 135.448C74.6897 136.854 74.3943 138.072 74.0762 139.367L77.6576 140.246Z" fill="black"/>
<path d="M84.9252 157.625C84.3571 158.812 83.5118 159.178 82.1029 158.852C79.8304 158.321 77.558 157.768 75.2582 157.219C73.2176 156.728 71.1678 156.242 69.1363 155.733C67.7728 155.385 67.2456 154.76 67.4092 153.372C67.5901 152.213 67.8344 151.064 68.1409 149.931C68.3137 149.181 68.5182 148.44 68.7227 147.699C69.1772 145.972 70.268 145.325 72.0586 145.74C75.4264 146.53 78.7896 147.342 82.1528 148.141C83.1527 148.382 84.1662 148.587 85.1525 148.873C86.2614 149.194 86.7387 149.953 86.516 150.984C86.0615 152.997 85.607 155.001 85.1207 157.018C85.0616 157.25 84.9707 157.478 84.9252 157.625ZM81.9892 155.42C82.2846 154.104 82.5437 152.948 82.821 151.698L78.8851 150.774C78.5306 152.064 78.2215 153.202 77.8898 154.425L81.9892 155.42ZM75.6037 149.975L71.8678 149.172C71.5451 150.466 71.2678 151.578 70.9588 152.827L74.5947 153.635C74.9447 152.332 75.2492 151.225 75.6037 149.975Z" fill="black"/>
<path d="M122.074 168.363C120.942 167.734 120.283 166.832 120.492 165.721C120.908 163.614 121.431 161.528 122.06 159.473C122.328 158.58 123.087 158.21 124.146 158.348C125.163 158.499 126.171 158.706 127.164 158.968C130.554 159.812 133.94 160.678 137.331 161.535C138.99 161.954 139.603 162.815 139.281 164.467C138.913 166.413 138.494 168.35 138.067 170.269C137.835 171.331 136.945 171.804 135.654 171.536C134.245 171.246 132.845 170.903 131.441 170.577C128.714 169.946 125.987 169.311 123.26 168.671C122.828 168.617 122.41 168.47 122.074 168.363ZM134.995 167.984C135.355 166.871 135.598 165.726 135.722 164.565L131.854 163.641C131.523 164.846 131.241 165.873 130.945 167.046L134.995 167.984ZM127.618 166.288L128.527 162.766L124.851 161.874C124.542 163.11 124.269 164.181 123.942 165.404L127.618 166.288Z" fill="black"/>
<path d="M106.501 179.965C106.291 180.361 105.935 180.664 105.505 180.812C105.075 180.959 104.604 180.941 104.188 180.76C103.821 180.571 103.541 180.253 103.405 179.869C103.268 179.485 103.285 179.065 103.452 178.693C103.54 178.487 103.67 178.301 103.833 178.145C103.996 177.99 104.189 177.868 104.401 177.787C104.613 177.706 104.84 177.668 105.067 177.675C105.294 177.682 105.518 177.734 105.724 177.827C105.921 177.914 106.099 178.039 106.245 178.195C106.392 178.35 106.505 178.533 106.578 178.733C106.65 178.933 106.681 179.145 106.668 179.357C106.655 179.569 106.598 179.775 106.501 179.965Z" fill="black"/>
<path d="M92.2448 179.632C92.4394 179.724 92.6134 179.853 92.7567 180.011C92.9001 180.17 93.0098 180.355 93.0796 180.555C93.1494 180.756 93.1778 180.968 93.1632 181.18C93.1487 181.391 93.0913 181.598 92.9946 181.787C92.7819 182.16 92.4293 182.435 92.0122 182.555C91.5952 182.675 91.1468 182.63 90.7631 182.43C90.5625 182.342 90.3823 182.215 90.2336 182.057C90.0849 181.898 89.9708 181.712 89.8983 181.508C89.8258 181.305 89.7965 181.089 89.8122 180.874C89.8279 180.659 89.8883 180.449 89.9895 180.258C90.0908 180.066 90.2309 179.897 90.4011 179.761C90.5713 179.625 90.7681 179.525 90.9794 179.466C91.1907 179.407 91.4119 179.392 91.6295 179.42C91.8471 179.449 92.0565 179.521 92.2448 179.632Z" fill="black"/>
<path d="M99.5747 180.413C99.9468 180.612 100.225 180.946 100.35 181.343C100.474 181.741 100.436 182.17 100.243 182.54C100.049 182.91 99.716 183.191 99.3144 183.323C98.9127 183.455 98.4744 183.428 98.0931 183.247C97.721 183.048 97.4429 182.714 97.3181 182.317C97.1933 181.92 97.2317 181.49 97.4252 181.12C97.6186 180.75 97.9518 180.469 98.3534 180.337C98.7551 180.205 99.1934 180.232 99.5747 180.413Z" fill="black"/>
<path d="M94.0361 178.372C93.8543 178.289 93.6911 178.171 93.5558 178.025C93.4204 177.88 93.3156 177.71 93.2472 177.524C93.1788 177.339 93.1483 177.143 93.1573 176.946C93.1663 176.749 93.2148 176.556 93.2998 176.377C93.3849 176.199 93.5049 176.038 93.653 175.906C93.8011 175.773 93.9745 175.67 94.1631 175.603C94.3517 175.535 94.552 175.505 94.7525 175.514C94.9529 175.523 95.1496 175.571 95.3314 175.654C95.5213 175.73 95.6933 175.843 95.8366 175.987C95.98 176.131 96.0916 176.302 96.1646 176.49C96.2375 176.678 96.2701 176.879 96.2605 177.08C96.2509 177.281 96.1992 177.478 96.1086 177.658C96.022 177.84 95.8993 178.003 95.7476 178.138C95.5959 178.273 95.4183 178.377 95.2253 178.443C95.0322 178.51 94.8276 178.538 94.6234 178.526C94.4192 178.513 94.2195 178.461 94.0361 178.372Z" fill="black"/>
<path d="M106.414 183.595C106.589 183.681 106.744 183.801 106.871 183.947C106.998 184.094 107.093 184.263 107.151 184.446C107.21 184.63 107.23 184.823 107.212 185.014C107.193 185.205 107.135 185.39 107.042 185.559C106.957 185.744 106.832 185.908 106.677 186.042C106.521 186.175 106.338 186.274 106.141 186.332C105.943 186.39 105.735 186.406 105.53 186.378C105.326 186.35 105.13 186.279 104.955 186.17C104.614 185.979 104.363 185.663 104.256 185.292C104.15 184.92 104.197 184.522 104.387 184.184C104.583 183.849 104.903 183.601 105.281 183.491C105.658 183.381 106.064 183.419 106.414 183.595Z" fill="black"/>
<path d="M134.219 153.46C134.541 152.211 134.832 151.099 135.169 149.787L139.132 150.778C138.836 152.095 138.573 153.286 138.268 154.652L134.219 153.46Z" fill="white"/>
<path d="M130.901 152.509L127.315 151.465L128.201 147.988L131.883 148.908C131.542 150.153 131.242 151.255 130.901 152.509Z" fill="white"/>
<path d="M85.0972 142.082L81.0068 141.096C81.3522 139.801 81.6704 138.623 82.0294 137.284L85.9244 138.297C85.6381 139.56 85.3836 140.752 85.0972 142.082Z" fill="white"/>
<path d="M77.6448 140.245L74.0815 139.352C74.3997 138.058 74.6951 136.84 75.0405 135.434L78.6764 136.362C78.4345 137.681 78.0896 138.979 77.6448 140.245Z" fill="white"/>
<path d="M81.9737 155.419L77.8833 154.424C78.2151 153.201 78.5241 152.063 78.8786 150.773L82.8145 151.697C82.5282 152.955 82.2691 154.111 81.9737 155.419Z" fill="white"/>
<path d="M75.6034 149.974C75.2625 151.224 74.958 152.331 74.6081 153.616L70.9722 152.809C71.2812 151.559 71.5585 150.448 71.8811 149.153L75.6034 149.974Z" fill="white"/>
<path d="M134.991 167.996L130.9 167.059C131.219 165.89 131.5 164.859 131.809 163.654L135.677 164.577C135.567 165.737 135.337 166.882 134.991 167.996Z" fill="white"/>
<path d="M127.617 166.3L123.981 165.407C124.29 164.185 124.563 163.113 124.89 161.877L128.567 162.77L127.617 166.3Z" fill="white"/>
</svg>
